<svg xmlns="http://www.w3.org/2000/svg" viewBox="0 0 120 120" role="img" aria-hidden="true">
  <defs>
    <linearGradient id="p0" x1="0%" y1="0%" x2="100%" y2="100%"><stop offset="0%" stop-color="#7eb8e8"/><stop offset="100%" stop-color="#a8d4f0"/></linearGradient>
    <linearGradient id="p1" x1="0%" y1="0%" x2="100%" y2="100%"><stop offset="0%" stop-color="#6ec4c8"/><stop offset="100%" stop-color="#9ed9d4"/></linearGradient>
    <linearGradient id="p2" x1="0%" y1="0%" x2="100%" y2="100%"><stop offset="0%" stop-color="#7ec99a"/><stop offset="100%" stop-color="#b0dfb8"/></linearGradient>
    <linearGradient id="p3" x1="0%" y1="0%" x2="100%" y2="100%"><stop offset="0%" stop-color="#a8d07a"/><stop offset="100%" stop-color="#c8e29a"/></linearGradient>
    <linearGradient id="p4" x1="0%" y1="0%" x2="100%" y2="100%"><stop offset="0%" stop-color="#d4c86a"/><stop offset="100%" stop-color="#e8dc9a"/></linearGradient>
    <linearGradient id="p5" x1="0%" y1="0%" x2="100%" y2="100%"><stop offset="0%" stop-color="#e8b87a"/><stop offset="100%" stop-color="#f0d0a0"/></linearGradient>
    <linearGradient id="p6" x1="0%" y1="0%" x2="100%" y2="100%"><stop offset="0%" stop-color="#e89a8a"/><stop offset="100%" stop-color="#f0c0b4"/></linearGradient>
    <linearGradient id="p7" x1="0%" y1="0%" x2="100%" y2="100%"><stop offset="0%" stop-color="#e088a8"/><stop offset="100%" stop-color="#f0b8c8"/></linearGradient>
    <linearGradient id="p8" x1="0%" y1="0%" x2="100%" y2="100%"><stop offset="0%" stop-color="#c888c0"/><stop offset="100%" stop-color="#e0b0d8"/></linearGradient>
    <linearGradient id="p9" x1="0%" y1="0%" x2="100%" y2="100%"><stop offset="0%" stop-color="#a888d0"/><stop offset="100%" stop-color="#c8b0e0"/></linearGradient>
    <linearGradient id="p10" x1="0%" y1="0%" x2="100%" y2="100%"><stop offset="0%" stop-color="#8888d8"/><stop offset="100%" stop-color="#b0b0e8"/></linearGradient>
    <linearGradient id="p11" x1="0%" y1="0%" x2="100%" y2="100%"><stop offset="0%" stop-color="#7898e0"/><stop offset="100%" stop-color="#a8c0f0"/></linearGradient>
    <linearGradient id="ring" x1="0%" y1="0%" x2="100%" y2="100%">
      <stop offset="0%" stop-color="#7eb8e8"/><stop offset="35%" stop-color="#7ec99a"/><stop offset="70%" stop-color="#e89a8a"/><stop offset="100%" stop-color="#a888d0"/>
    </linearGradient>
  </defs>
  <g transform="translate(60,60)">
    <path d="M0,-22 C7,-38 16,-52 0,-64 C-16,-52 -7,-38 0,-22 Z" fill="url(#p0)" stroke="#fff" stroke-width="1.5" transform="rotate(0)"/>
    <path d="M0,-22 C7,-38 16,-52 0,-64 C-16,-52 -7,-38 0,-22 Z" fill="url(#p1)" stroke="#fff" stroke-width="1.5" transform="rotate(30)"/>
    <path d="M0,-22 C7,-38 16,-52 0,-64 C-16,-52 -7,-38 0,-22 Z" fill="url(#p2)" stroke="#fff" stroke-width="1.5" transform="rotate(60)"/>
    <path d="M0,-22 C7,-38 16,-52 0,-64 C-16,-52 -7,-38 0,-22 Z" fill="url(#p3)" stroke="#fff" stroke-width="1.5" transform="rotate(90)"/>
    <path d="M0,-22 C7,-38 16,-52 0,-64 C-16,-52 -7,-38 0,-22 Z" fill="url(#p4)" stroke="#fff" stroke-width="1.5" transform="rotate(120)"/>
    <path d="M0,-22 C7,-38 16,-52 0,-64 C-16,-52 -7,-38 0,-22 Z" fill="url(#p5)" stroke="#fff" stroke-width="1.5" transform="rotate(150)"/>
    <path d="M0,-22 C7,-38 16,-52 0,-64 C-16,-52 -7,-38 0,-22 Z" fill="url(#p6)" stroke="#fff" stroke-width="1.5" transform="rotate(180)"/>
    <path d="M0,-22 C7,-38 16,-52 0,-64 C-16,-52 -7,-38 0,-22 Z" fill="url(#p7)" stroke="#fff" stroke-width="1.5" transform="rotate(210)"/>
    <path d="M0,-22 C7,-38 16,-52 0,-64 C-16,-52 -7,-38 0,-22 Z" fill="url(#p8)" stroke="#fff" stroke-width="1.5" transform="rotate(240)"/>
    <path d="M0,-22 C7,-38 16,-52 0,-64 C-16,-52 -7,-38 0,-22 Z" fill="url(#p9)" stroke="#fff" stroke-width="1.5" transform="rotate(270)"/>
    <path d="M0,-22 C7,-38 16,-52 0,-64 C-16,-52 -7,-38 0,-22 Z" fill="url(#p10)" stroke="#fff" stroke-width="1.5" transform="rotate(300)"/>
    <path d="M0,-22 C7,-38 16,-52 0,-64 C-16,-52 -7,-38 0,-22 Z" fill="url(#p11)" stroke="#fff" stroke-width="1.5" transform="rotate(330)"/>
    <circle r="24" fill="#fff" stroke="url(#ring)" stroke-width="2.5"/>
    <text x="0" y="7" text-anchor="middle" font-family="Georgia, serif" font-size="18" font-style="italic" font-weight="700">
      <tspan fill="#5a9ad8">B</tspan><tspan fill="#9a70c8">S</tspan><tspan fill="#5aaa78">C</tspan>
    </text>
  </g>
</svg>
